<svg xmlns="http://www.w3.org/2000/svg" width="980" height="760" viewBox="0 0 980 760" font-family="Hiragino Sans, Noto Sans CJK JP, sans-serif">
<rect x="0" y="0" width="980" height="760" fill="#0b1622"/>
<text x="60" y="34" fill="#e8f0f7" font-size="26" font-weight="700">エピソード1: 防御成功（AI指揮官）</text>
<text x="60" y="56" fill="#8fa8bf" font-size="15">flag_defence_squadrons ／ qwen2.5:32b 指揮官+艇AI vs ルールベース攻撃側 ／ t_end=16.9s</text>
<rect x="60" y="120" width="860" height="580" fill="#0d1a29" stroke="#1e344a" stroke-width="1"/>
<circle cx="106.07142857142858" cy="408.2090560932164" r="236.03148814932095" fill="none" stroke="#1e344a" stroke-width="1" stroke-dasharray="3,4"/>
<text x="345.10291672074953" y="405.2090560932164" fill="#4a6178" font-size="11">200m</text>
<path d="M106.07142857142858,394.2090560932164 L106.07142857142858,422.2090560932164" stroke="#e0b84e" stroke-width="2.5"/>
<path d="M106.07142857142858,394.2090560932164 L122.07142857142858,399.2090560932164 L106.07142857142858,404.2090560932164 Z" fill="#e0b84e"/>
<text x="110.07142857142858" y="436.2090560932164" fill="#e0b84e" font-size="13" font-weight="700">旗</text>
<path d="M282.8,409.3 L282.8,409.3 L282.8,409.3 L282.8,409.3 L282.8,409.3 L282.8,409.3 L282.9,409.3 L282.9,409.3 L282.9,409.3 L283.0,409.3 L283.0,409.3 L283.1,409.3 L283.1,409.3 L283.2,409.3 L283.3,409.3 L283.3,409.2 L283.4,409.2 L283.5,409.2 L283.5,409.2 L283.6,409.2 L283.7,409.2 L283.8,409.2 L283.9,409.2 L284.0,409.2 L284.1,409.2 L284.2,409.2 L284.3,409.2 L284.4,409.1 L284.5,409.1 L284.7,409.1 L284.8,409.1 L284.9,409.1 L285.1,409.1 L285.3,409.0 L285.5,409.0 L285.6,409.0 L285.8,409.0 L286.1,409.0 L286.3,408.9 L286.5,408.9 L286.8,408.9 L287.0,408.8 L287.3,408.8 L287.6,408.8 L287.9,408.8 L288.2,408.7 L288.5,408.7 L288.9,408.7 L289.2,408.6 L289.6,408.6 L289.9,408.5 L290.3,408.5 L290.7,408.5 L291.1,408.4 L291.5,408.4 L291.9,408.4 L292.4,408.3 L292.8,408.3 L293.3,408.2 L293.8,408.2 L294.2,408.1 L294.7,408.1 L295.2,408.1 L295.6,408.0 L296.1,408.0 L296.6,407.9 L297.0,407.9 L297.5,407.9 L298.0,407.8 L298.4,407.8 L298.9,407.7 L299.4,407.7 L299.9,407.7 L300.3,407.6 L300.8,407.6 L301.3,407.6 L301.7,407.5 L302.2,407.5 L302.7,407.5 L303.1,407.4 L303.6,407.4 L304.1,407.4 L304.5,407.3 L305.0,407.3 L305.5,407.3 L306.0,407.2 L306.4,407.2 L306.9,407.2 L307.4,407.1 L307.8,407.1 L308.3,407.1 L308.8,407.0 L309.2,407.0 L309.7,407.0 L310.2,407.0 L310.7,406.9 L311.1,406.9 L311.6,406.9 L312.1,406.8 L312.5,406.8 L313.0,406.8 L313.5,406.8 L313.9,406.7 L314.4,406.7 L314.9,406.7 L315.4,406.7 L315.8,406.6 L316.3,406.6 L316.8,406.6 L317.2,406.6 L317.7,406.6 L318.2,406.5 L318.7,406.5 L319.1,406.5 L319.6,406.5 L320.1,406.4 L320.5,406.4 L321.0,406.4 L321.5,406.4 L321.9,406.4 L322.4,406.3 L322.9,406.3 L323.4,406.3 L323.8,406.3 L324.3,406.3 L324.8,406.2 L325.2,406.2 L325.7,406.2 L326.2,406.2 L326.7,406.2 L327.1,406.2 L327.6,406.1 L328.1,406.1 L328.5,406.1 L329.0,406.1 L329.5,406.1 L330.0,406.1 L330.4,406.0 L330.9,406.0 L331.4,406.0 L331.8,406.0 L332.3,406.0 L332.8,406.0 L333.3,406.0 L333.7,406.0 L334.2,405.9 L334.7,405.9 L335.1,405.9 L335.6,405.9 L336.1,405.9 L336.6,405.9 L337.0,405.9 L337.5,405.8 L338.0,405.8 L338.5,405.8 L338.9,405.8 L339.4,405.8 L339.9,405.8 L340.3,405.8 L340.8,405.8 L341.3,405.8 L341.8,405.8 L342.2,405.7 L342.7,405.7 L343.2,405.7 L343.6,405.7 L344.1,405.7 L344.6,405.7 L345.1,405.7" fill="none" stroke="#4ea3e0" stroke-width="2.4" opacity="0.92"/>
<circle cx="282.8" cy="409.3" r="6" fill="#0d1a29" stroke="#4ea3e0" stroke-width="2.5"/>
<circle cx="345.1" cy="405.7" r="5.5" fill="#4ea3e0"/>
<path d="M460.1,329.4 L460.1,329.4 L460.2,329.5 L460.2,329.5 L460.3,329.5 L460.3,329.5 L460.4,329.5 L460.5,329.5 L460.6,329.6 L460.7,329.6 L460.8,329.7 L460.9,329.7 L461.0,329.8 L461.1,329.9 L461.3,330.0 L461.4,330.1 L461.5,330.2 L461.6,330.3 L461.8,330.4 L461.9,330.5 L462.0,330.7 L462.1,330.8 L462.2,331.0 L462.3,331.2 L462.4,331.4 L462.5,331.6 L462.6,331.8 L462.7,332.0 L462.8,332.2 L462.8,332.5 L462.9,332.7 L463.0,333.0 L463.1,333.2 L463.3,333.5 L463.4,333.8 L463.6,334.1 L463.8,334.5 L464.1,334.8 L464.3,335.1 L464.6,335.5 L464.9,335.8 L465.3,336.2 L465.7,336.6 L466.1,336.9 L466.5,337.3 L466.9,337.7 L467.4,338.1 L467.9,338.5 L468.5,338.9 L469.1,339.3 L469.7,339.7 L470.3,340.1 L471.0,340.5 L471.7,340.9 L472.4,341.3 L473.2,341.7 L474.0,342.1 L474.8,342.5 L475.6,342.9 L476.5,343.3 L477.4,343.7 L478.3,344.0 L479.3,344.4 L480.2,344.7 L481.1,345.1 L482.1,345.4 L483.0,345.7 L484.0,346.0 L484.9,346.3 L485.9,346.6 L486.9,346.9 L487.9,347.1 L488.9,347.4 L489.9,347.6 L490.9,347.9 L491.9,348.1 L492.9,348.3 L493.9,348.5 L495.0,348.7 L496.0,348.9 L497.0,349.1 L498.0,349.2 L499.1,349.4 L500.1,349.5 L501.2,349.7 L502.2,349.8 L503.3,349.9 L504.3,350.0 L505.4,350.2 L506.4,350.3 L507.5,350.3 L508.5,350.4 L509.6,350.5 L510.6,350.6 L511.7,350.6 L512.7,350.7 L513.8,350.7 L514.9,350.8 L515.9,350.8 L517.0,350.8 L518.0,350.8 L519.1,350.8 L520.2,350.9 L521.2,350.9 L522.3,350.8 L523.4,350.8 L524.4,350.8 L525.5,350.8 L526.5,350.8 L527.6,350.7 L528.7,350.7 L529.7,350.6 L530.8,350.6 L531.8,350.5 L532.9,350.5 L534.0,350.4 L535.0,350.3 L536.1,350.2 L537.1,350.2 L538.2,350.1 L539.2,350.0 L540.3,349.9 L541.3,349.8 L542.4,349.7 L543.4,349.6 L544.5,349.5 L545.5,349.4 L546.6,349.3 L547.6,349.2 L548.7,349.0 L549.7,348.9 L550.8,348.8 L551.8,348.7 L552.9,348.5 L553.9,348.4 L555.0,348.3 L556.0,348.1 L557.0,348.0 L558.1,347.8 L559.1,347.7 L560.2,347.5 L561.2,347.4 L562.2,347.2 L563.3,347.1 L564.3,346.9 L565.3,346.8 L566.4,346.6 L567.4,346.4 L568.4,346.3 L569.5,346.1 L570.5,345.9 L571.5,345.7 L572.6,345.6 L573.6,345.4 L574.6,345.2 L575.6,345.0 L576.6,344.7" fill="none" stroke="#7fc3ee" stroke-width="2.4" opacity="0.92"/>
<circle cx="460.1" cy="329.4" r="6" fill="#0d1a29" stroke="#7fc3ee" stroke-width="2.5"/>
<circle cx="576.6" cy="344.7" r="5.5" fill="#7fc3ee"/>
<path d="M460.1,489.1 L460.1,489.1 L460.2,489.1 L460.2,489.1 L460.3,489.1 L460.3,489.1 L460.4,489.0 L460.5,489.0 L460.6,489.0 L460.7,488.9 L460.8,488.9 L460.9,488.8 L461.0,488.8 L461.1,488.7 L461.3,488.6 L461.4,488.5 L461.5,488.4 L461.6,488.3 L461.8,488.1 L461.9,488.0 L462.0,487.9 L462.1,487.7 L462.2,487.5 L462.3,487.4 L462.4,487.2 L462.5,487.0 L462.6,486.8 L462.7,486.6 L462.8,486.3 L462.9,486.1 L462.9,485.9 L463.0,485.6 L463.2,485.3 L463.3,485.0 L463.5,484.7 L463.7,484.4 L463.9,484.1 L464.1,483.8 L464.4,483.4 L464.7,483.1 L465.0,482.7 L465.3,482.4 L465.7,482.0 L466.1,481.6 L466.5,481.3 L467.0,480.9 L467.5,480.5 L468.0,480.1 L468.6,479.7 L469.1,479.3 L469.8,478.9 L470.4,478.5 L471.1,478.1 L471.8,477.7 L472.5,477.3 L473.3,476.9 L474.1,476.5 L474.9,476.2 L475.8,475.8 L476.7,475.4 L477.6,475.0 L478.5,474.7 L479.5,474.3 L480.4,474.0 L481.4,473.7 L482.3,473.4 L483.3,473.1 L484.3,472.8 L485.3,472.5 L486.3,472.3 L487.3,472.0 L488.3,471.8 L489.3,471.6 L490.3,471.4 L491.3,471.2 L492.3,471.0 L493.4,470.8 L494.4,470.7 L495.4,470.5 L496.5,470.4 L497.5,470.3 L498.6,470.1 L499.6,470.0 L500.7,469.9 L501.7,469.9 L502.8,469.8 L503.9,469.7 L504.9,469.7 L506.0,469.6 L507.0,469.6 L508.1,469.6 L509.2,469.6 L510.2,469.6 L511.3,469.6 L512.3,469.6 L513.4,469.6 L514.5,469.7 L515.5,469.7 L516.6,469.8 L517.6,469.9 L518.7,469.9 L519.8,470.0 L520.8,470.1 L521.9,470.2 L522.9,470.4 L523.9,470.5 L525.0,470.6 L526.0,470.8 L527.1,470.9 L528.1,471.1 L529.1,471.3 L530.1,471.5 L531.2,471.7 L532.2,471.9 L533.2,472.1 L534.2,472.3 L535.2,472.6 L536.2,472.8 L537.2,473.1 L538.2,473.3 L539.2,473.6 L540.1,473.9 L541.1,474.2 L542.1,474.5 L543.0,474.8 L544.0,475.1 L544.9,475.4 L545.9,475.7 L546.8,476.1 L547.7,476.4 L548.7,476.8 L549.6,477.2 L550.5,477.6 L551.3,478.0 L552.2,478.4 L553.1,478.8 L554.0,479.2 L554.8,479.6 L555.7,480.0 L556.5,480.5 L557.3,480.9 L558.1,481.4 L558.9,481.9 L559.7,482.3 L560.5,482.8 L561.3,483.3 L562.0,483.8 L562.8,484.3 L563.5,484.9 L564.2,485.4 L564.9,485.9 L565.6,486.5 L566.3,487.0 L566.9,487.6 L567.6,488.2 L568.2,488.7 L568.8,489.3 L569.4,489.9 L570.0,490.5 L570.5,491.1 L571.1,491.8 L571.6,492.4 L572.1,493.0 L572.6,493.6 L573.1,494.3 L573.5,494.9 L574.0,495.6 L574.4,496.2" fill="none" stroke="#2f6f9e" stroke-width="2.4" opacity="0.92"/>
<circle cx="460.1" cy="489.1" r="6" fill="#0d1a29" stroke="#2f6f9e" stroke-width="2.5"/>
<circle cx="574.4" cy="496.2" r="5.5" fill="#2f6f9e"/>
<path d="M519.2,409.3 L519.2,409.3 L519.2,409.3 L519.3,409.3 L519.3,409.3 L519.4,409.2 L519.4,409.2 L519.5,409.2 L519.5,409.2 L519.6,409.2 L519.7,409.1 L519.8,409.1 L520.0,409.1 L520.1,409.0 L520.3,409.0 L520.4,408.9 L520.6,408.9 L520.9,408.8 L521.1,408.7 L521.3,408.7 L521.6,408.6 L521.9,408.5 L522.2,408.4 L522.5,408.3 L522.8,408.3 L523.2,408.2 L523.5,408.1 L523.9,408.0 L524.3,407.9 L524.7,407.8 L525.2,407.7 L525.6,407.6 L526.1,407.5 L526.6,407.4 L527.1,407.3 L527.6,407.2 L528.1,407.0 L528.7,406.9 L529.3,406.8 L529.9,406.7 L530.5,406.6 L531.1,406.5 L531.8,406.3 L532.4,406.2 L533.1,406.1 L533.8,406.0 L534.5,405.9 L535.2,405.7 L535.9,405.6 L536.5,405.5 L537.2,405.4 L537.9,405.3 L538.6,405.2 L539.3,405.1 L540.0,405.0 L540.7,404.9 L541.4,404.8 L542.1,404.7 L542.8,404.6 L543.5,404.5 L544.2,404.4 L544.8,404.3 L545.5,404.2 L546.2,404.1 L546.9,404.0 L547.6,404.0 L548.3,403.9 L549.0,403.8 L549.7,403.7 L550.4,403.6 L551.1,403.6 L551.8,403.5 L552.5,403.4 L553.2,403.4 L553.9,403.3 L554.6,403.2 L555.3,403.2 L556.0,403.1 L556.7,403.0 L557.4,403.0 L558.1,402.9 L558.8,402.8 L559.5,402.8 L560.2,402.7 L561.0,402.7 L561.7,402.6 L562.4,402.6 L563.1,402.5 L563.8,402.5 L564.5,402.4 L565.2,402.4 L565.9,402.4 L566.6,402.3 L567.3,402.3 L568.0,402.2 L568.7,402.2 L569.4,402.2 L570.1,402.1 L570.8,402.1 L571.5,402.1 L572.2,402.0 L572.9,402.0 L573.7,402.0 L574.4,401.9 L575.1,401.9 L575.8,401.9 L576.5,401.9 L577.2,401.8 L577.9,401.8 L578.6,401.8 L579.3,401.8 L580.0,401.8 L580.7,401.8 L581.4,401.7 L582.1,401.7 L582.8,401.7 L583.6,401.7 L584.3,401.7 L585.0,401.7 L585.7,401.7 L586.4,401.7 L587.1,401.7 L587.8,401.7 L588.5,401.7 L589.2,401.7 L589.9,401.7" fill="none" stroke="#5fc9a0" stroke-width="2.4" opacity="0.92"/>
<circle cx="519.2" cy="409.3" r="6" fill="#0d1a29" stroke="#5fc9a0" stroke-width="2.5"/>
<circle cx="589.9" cy="401.7" r="5.5" fill="#5fc9a0"/>
<path d="M755.7,409.3 L755.7,409.3 L755.6,409.3 L755.6,409.3 L755.5,409.3 L755.5,409.3 L755.4,409.3 L755.3,409.3 L755.2,409.3 L755.1,409.3 L755.0,409.3 L754.9,409.3 L754.8,409.3 L754.6,409.3 L754.5,409.3 L754.3,409.3 L754.2,409.3 L754.0,409.3 L753.8,409.3 L753.6,409.3 L753.4,409.3 L753.1,409.3 L752.9,409.3 L752.7,409.3 L752.4,409.3 L752.2,409.3 L751.9,409.3 L751.6,409.3 L751.3,409.3 L751.0,409.3 L750.7,409.3 L750.4,409.3 L750.1,409.3 L749.7,409.3 L749.4,409.3 L749.0,409.3 L748.6,409.3 L748.3,409.3 L747.9,409.3 L747.5,409.3 L747.0,409.3 L746.6,409.3 L746.2,409.3 L745.8,409.4 L745.3,409.4 L744.8,409.4 L744.4,409.4 L743.9,409.4 L743.4,409.4 L743.0,409.5 L742.5,409.5 L742.0,409.5 L741.5,409.5 L741.1,409.6 L740.6,409.6 L740.1,409.6 L739.7,409.6 L739.2,409.7 L738.7,409.7 L738.3,409.7 L737.8,409.7 L737.3,409.8 L736.8,409.8 L736.4,409.8 L735.9,409.9 L735.4,409.9 L735.0,409.9 L734.5,410.0 L734.0,410.0 L733.6,410.0 L733.1,410.1 L732.6,410.1 L732.2,410.2 L731.7,410.2 L731.2,410.2 L730.7,410.3 L730.3,410.3 L729.8,410.4 L729.3,410.4 L728.9,410.4 L728.4,410.5 L727.9,410.5 L727.5,410.6 L727.0,410.6 L726.5,410.7 L726.1,410.7 L725.6,410.8 L725.1,410.8 L724.7,410.9 L724.2,410.9 L723.7,411.0 L723.3,411.0 L722.8,411.1 L722.4,411.2 L721.9,411.2 L721.4,411.3 L721.0,411.3 L720.5,411.4 L720.0,411.4 L719.6,411.5 L719.1,411.6 L718.6,411.6 L718.2,411.7 L717.7,411.7 L717.2,411.8 L716.8,411.9 L716.3,411.9 L715.9,412.0 L715.4,412.1 L714.9,412.1 L714.5,412.2 L714.0,412.3 L713.6,412.3 L713.1,412.4 L712.6,412.5 L712.2,412.5 L711.7,412.6 L711.2,412.7 L710.8,412.7 L710.3,412.8 L709.9,412.9 L709.4,413.0 L708.9,413.0 L708.5,413.1 L708.0,413.2 L707.6,413.2" fill="none" stroke="#e0674e" stroke-width="2.4" opacity="0.92"/>
<circle cx="755.7" cy="409.3" r="6" fill="#0d1a29" stroke="#e0674e" stroke-width="2.5"/>
<circle cx="707.6" cy="413.2" r="5.5" fill="#e0674e"/>
<path d="M755.7,289.6 L755.6,289.6 L755.6,289.6 L755.5,289.6 L755.4,289.6 L755.3,289.6 L755.1,289.6 L755.0,289.6 L754.8,289.6 L754.6,289.6 L754.4,289.6 L754.1,289.6 L753.9,289.6 L753.6,289.6 L753.3,289.7 L753.0,289.7 L752.6,289.7 L752.3,289.7 L751.9,289.7 L751.5,289.8 L751.1,289.8 L750.6,289.8 L750.2,289.9 L749.7,289.9 L749.2,289.9 L748.7,290.0 L748.1,290.0 L747.6,290.1 L747.0,290.1 L746.4,290.2 L745.8,290.2 L745.2,290.3 L744.5,290.4 L743.8,290.4 L743.1,290.5 L742.4,290.6 L741.7,290.7 L740.9,290.8 L740.2,290.9 L739.4,291.0 L738.6,291.1 L737.8,291.3 L736.9,291.4 L736.1,291.5 L735.2,291.7 L734.3,291.8 L733.4,292.0 L732.5,292.1 L731.5,292.3 L730.5,292.5 L729.5,292.7 L728.5,292.9 L727.5,293.1 L726.5,293.3 L725.5,293.5 L724.5,293.7 L723.5,293.9 L722.5,294.1 L721.5,294.4 L720.4,294.6 L719.4,294.8 L718.4,295.1 L717.4,295.3 L716.4,295.5 L715.4,295.8 L714.4,296.0 L713.4,296.3 L712.4,296.5 L711.4,296.7 L710.4,297.0 L709.4,297.2 L708.4,297.5 L707.4,297.7 L706.4,298.0 L705.5,298.2 L704.5,298.5 L703.5,298.7 L702.5,299.0 L701.5,299.3 L700.5,299.5 L699.5,299.8 L698.5,300.0 L697.5,300.3 L696.5,300.6 L695.5,300.8 L694.6,301.1 L693.6,301.3 L692.6,301.6 L691.6,301.9 L690.6,302.1 L689.6,302.4 L688.6,302.7 L687.6,302.9 L686.7,303.2 L685.7,303.5 L684.7,303.7 L683.7,304.0 L682.7,304.3 L681.8,304.6 L680.8,304.9 L679.8,305.1 L678.8,305.4 L677.9,305.7 L676.9,306.0 L675.9,306.3 L675.0,306.6 L674.0,307.0 L673.1,307.3 L672.1,307.6 L671.2,307.9 L670.2,308.2 L669.3,308.6 L668.3,308.9 L667.4,309.2 L666.5,309.5 L665.5,309.9 L664.6,310.2 L663.6,310.6 L662.7,310.9 L661.8,311.3 L660.9,311.6 L659.9,312.0 L659.0,312.3 L658.1,312.7 L657.2,313.0 L656.2,313.4 L655.3,313.7 L654.4,314.1 L653.5,314.5 L652.6,314.8 L651.7,315.2 L650.8,315.6 L649.8,315.9 L648.9,316.3 L648.0,316.7 L647.1,317.0 L646.2,317.4 L645.3,317.7 L644.3,318.1 L643.4,318.5 L642.5,318.8 L641.6,319.2 L640.7,319.5 L639.8,319.9 L638.8,320.3 L637.9,320.6 L637.0,321.0 L636.1,321.3 L635.1,321.7 L634.2,322.0 L633.3,322.4 L632.4,322.7 L631.5,323.1 L630.5,323.5 L629.6,323.8 L628.7,324.2 L627.8,324.5" fill="none" stroke="#f0917a" stroke-width="2.4" opacity="0.92"/>
<circle cx="755.7" cy="289.6" r="6" fill="#0d1a29" stroke="#f0917a" stroke-width="2.5"/>
<circle cx="627.8" cy="324.5" r="5.5" fill="#f0917a"/>
<path d="M755.7,529.0 L755.6,529.0 L755.6,529.0 L755.5,529.0 L755.4,529.0 L755.3,529.0 L755.1,529.0 L755.0,529.0 L754.8,529.0 L754.6,528.9 L754.4,528.9 L754.1,528.9 L753.9,528.9 L753.6,528.9 L753.3,528.9 L753.0,528.9 L752.6,528.8 L752.3,528.8 L751.9,528.8 L751.5,528.8 L751.1,528.7 L750.6,528.7 L750.2,528.7 L749.7,528.6 L749.2,528.6 L748.7,528.6 L748.1,528.5 L747.6,528.5 L747.0,528.4 L746.4,528.4 L745.8,528.3 L745.2,528.3 L744.5,528.2 L743.8,528.1 L743.1,528.1 L742.4,528.0 L741.7,528.0 L740.9,527.9 L740.1,527.8 L739.3,527.8 L738.5,527.7 L737.7,527.7 L736.8,527.6 L735.9,527.5 L735.0,527.5 L734.1,527.4 L733.2,527.3 L732.2,527.3 L731.3,527.2 L730.3,527.1 L729.2,527.1 L728.2,527.0 L727.1,526.9 L726.1,526.9 L725.0,526.8 L724.0,526.7 L722.9,526.7 L721.9,526.6 L720.8,526.6 L719.7,526.5 L718.7,526.4 L717.6,526.4 L716.6,526.3 L715.5,526.3 L714.4,526.2 L713.4,526.1 L712.3,526.1 L711.3,526.0 L710.2,526.0 L709.1,525.9 L708.1,525.9 L707.0,525.8 L706.0,525.8 L704.9,525.7 L703.8,525.7 L702.8,525.7 L701.7,525.6 L700.7,525.6 L699.6,525.6 L698.5,525.5 L697.5,525.5 L696.4,525.5 L695.4,525.5 L694.3,525.5 L693.2,525.4 L692.2,525.4 L691.1,525.4 L690.0,525.4 L689.0,525.4 L687.9,525.4 L686.9,525.4 L685.8,525.4 L684.7,525.4 L683.7,525.4 L682.6,525.5 L681.6,525.5 L680.5,525.5 L679.4,525.5 L678.4,525.5 L677.3,525.6 L676.2,525.6 L675.2,525.6 L674.1,525.6 L673.1,525.7 L672.0,525.7 L670.9,525.7 L669.9,525.8 L668.8,525.8 L667.8,525.9 L666.7,525.9 L665.6,526.0 L664.6,526.0 L663.5,526.1 L662.5,526.1 L661.4,526.2 L660.3,526.2 L659.3,526.3 L658.2,526.3 L657.2,526.4 L656.1,526.5 L655.0,526.5 L654.0,526.6 L652.9,526.6 L651.9,526.7 L650.8,526.8 L649.8,526.9 L648.7,526.9 L647.6,527.0 L646.6,527.1 L645.5,527.2 L644.5,527.2 L643.4,527.3 L642.4,527.4 L641.3,527.5 L640.3,527.6 L639.2,527.6 L638.1,527.7 L637.1,527.8 L636.0,527.9 L635.0,528.0 L633.9,528.0 L632.9,528.1 L631.8,528.2 L630.8,528.3 L629.7,528.4 L628.7,528.5 L627.6,528.6 L626.5,528.6 L625.5,528.7 L624.4,528.8 L623.4,528.9 L622.3,529.0 L621.3,529.1 L620.2,529.2 L619.2,529.3 L618.1,529.3 L617.1,529.4 L616.0,529.5 L615.0,529.6 L613.9,529.7 L612.8,529.8 L611.8,529.9 L610.7,530.0 L609.7,530.1 L608.6,530.2 L607.6,530.2 L606.5,530.3 L605.5,530.4" fill="none" stroke="#b8432c" stroke-width="2.4" opacity="0.92"/>
<circle cx="755.7" cy="529.0" r="6" fill="#0d1a29" stroke="#b8432c" stroke-width="2.5"/>
<circle cx="605.5" cy="530.4" r="5.5" fill="#b8432c"/>
<path d="M873.9,409.3 L873.9,409.3 L873.9,409.3 L873.8,409.3 L873.7,409.3 L873.6,409.3 L873.5,409.3 L873.4,409.3 L873.3,409.3 L873.1,409.3 L873.0,409.3 L872.8,409.3 L872.6,409.3 L872.4,409.3 L872.1,409.3 L871.9,409.3 L871.6,409.3 L871.4,409.3 L871.1,409.3 L870.8,409.3 L870.5,409.3 L870.1,409.3 L869.8,409.3 L869.4,409.3 L869.1,409.3 L868.7,409.3 L868.3,409.3 L867.8,409.3 L867.4,409.3 L866.9,409.3 L866.5,409.3 L866.0,409.3 L865.5,409.3 L865.0,409.3 L864.5,409.3 L863.9,409.3 L863.4,409.3 L862.8,409.3 L862.2,409.3 L861.6,409.3 L861.0,409.4 L860.4,409.4 L859.7,409.4 L859.1,409.4 L858.4,409.4 L857.7,409.5 L857.0,409.5 L856.3,409.5 L855.6,409.5 L854.9,409.6 L854.1,409.6 L853.4,409.6 L852.7,409.7 L852.0,409.7 L851.3,409.7 L850.6,409.8 L849.9,409.8 L849.2,409.9 L848.5,409.9 L847.8,409.9 L847.1,410.0 L846.4,410.0 L845.7,410.1 L845.0,410.1 L844.3,410.2 L843.6,410.2 L842.9,410.3 L842.2,410.3 L841.5,410.4 L840.8,410.4 L840.0,410.5 L839.3,410.5 L838.6,410.6 L837.9,410.6 L837.2,410.7 L836.5,410.8 L835.8,410.8 L835.1,410.9 L834.4,410.9 L833.7,411.0 L833.0,411.1 L832.3,411.1 L831.6,411.2 L830.9,411.3 L830.2,411.3 L829.5,411.4 L828.8,411.5 L828.1,411.5 L827.4,411.6 L826.7,411.7 L826.0,411.8 L825.3,411.8 L824.6,411.9 L823.9,412.0 L823.2,412.0 L822.5,412.1 L821.8,412.2 L821.1,412.3 L820.4,412.3 L819.7,412.4 L819.0,412.5 L818.3,412.6 L817.6,412.7 L816.9,412.7 L816.2,412.8 L815.5,412.9 L814.8,413.0 L814.1,413.1 L813.4,413.2 L812.7,413.2 L812.0,413.3 L811.3,413.4 L810.7,413.5 L810.0,413.6 L809.3,413.7 L808.6,413.8 L807.9,413.9 L807.2,414.0 L806.5,414.1 L805.8,414.2 L805.1,414.3 L804.4,414.4 L803.7,414.5 L803.0,414.6 L802.3,414.7 L801.7,414.8 L801.0,414.9 L800.3,415.0 L799.6,415.1 L798.9,415.2 L798.2,415.3 L797.5,415.5 L796.8,415.6 L796.1,415.7 L795.5,415.8 L794.8,415.9 L794.1,416.0 L793.4,416.1 L792.7,416.2 L792.0,416.3 L791.3,416.5 L790.6,416.6 L789.9,416.7 L789.3,416.8 L788.6,416.9 L787.9,417.0 L787.2,417.1 L786.5,417.2 L785.8,417.3 L785.1,417.4 L784.4,417.5 L783.7,417.7 L783.0,417.8 L782.4,417.9 L781.7,418.0 L781.0,418.1 L780.3,418.2 L779.6,418.3 L778.9,418.5 L778.2,418.6 L777.5,418.7 L776.9,418.8 L776.2,418.9 L775.5,419.0 L774.8,419.1 L774.1,419.2 L773.4,419.4 L772.7,419.5 L772.0,419.6" fill="none" stroke="#e0b84e" stroke-width="2.4" opacity="0.92"/>
<circle cx="873.9" cy="409.3" r="6" fill="#0d1a29" stroke="#e0b84e" stroke-width="2.5"/>
<circle cx="772.0" cy="419.6" r="5.5" fill="#e0b84e"/>
<rect x="716" y="106" width="240" height="210" fill="#122234" stroke="#1e344a" rx="8"/>
<text x="730" y="124" fill="#dceaf5" font-size="13" font-weight="700">凡例（○=開始 ●=最終位置）</text>
<line x1="730" y1="142" x2="754" y2="142" stroke="#4ea3e0" stroke-width="3"/>
<text x="760" y="146" fill="#b9cddf" font-size="12.5">def-heavy (守備) t=16.9s</text>
<line x1="730" y1="164" x2="754" y2="164" stroke="#7fc3ee" stroke-width="3"/>
<text x="760" y="168" fill="#b9cddf" font-size="12.5">def-runner-1 (守備) t=15.7s</text>
<line x1="730" y1="186" x2="754" y2="186" stroke="#2f6f9e" stroke-width="3"/>
<text x="760" y="190" fill="#b9cddf" font-size="12.5">def-runner-2 (守備) t=16.8s</text>
<line x1="730" y1="208" x2="754" y2="208" stroke="#5fc9a0" stroke-width="3"/>
<text x="760" y="212" fill="#b9cddf" font-size="12.5">def-scout (守備) t=12.6s</text>
<line x1="730" y1="230" x2="754" y2="230" stroke="#e0674e" stroke-width="3"/>
<text x="760" y="234" fill="#b9cddf" font-size="12.5">int-heavy (攻撃) t=12.6s</text>
<line x1="730" y1="252" x2="754" y2="252" stroke="#f0917a" stroke-width="3"/>
<text x="760" y="256" fill="#b9cddf" font-size="12.5">int-runner-1 (攻撃) t=15.7s</text>
<line x1="730" y1="274" x2="754" y2="274" stroke="#b8432c" stroke-width="3"/>
<text x="760" y="278" fill="#b9cddf" font-size="12.5">int-runner-2 (攻撃) t=16.8s</text>
<line x1="730" y1="296" x2="754" y2="296" stroke="#e0b84e" stroke-width="3"/>
<text x="760" y="300" fill="#b9cddf" font-size="12.5">int-scout (攻撃) t=16.9s</text>
</svg>